<?xml version="1.0" encoding="UTF-8"?>
<svg width="24px" height="24px" viewBox="0 0 24 24" version="1.1" xmlns="http://www.w3.org/2000/svg" xmlns:xlink="http://www.w3.org/1999/xlink">
    <title>Fiverr</title>
    <g id="Page-1" stroke="none" stroke-width="1" fill="none" fill-rule="evenodd">
        <g id="Fiverr" fill-rule="nonzero">
            <path d="M24,12 C24,5.372583 18.627417,0 12,0 C5.372583,0 0,5.372583 0,12 C0,18.627417 5.372583,24 12,24 C18.627417,24 24,18.627417 24,12 Z" id="Path" fill="#1DBF73"></path>
            <path d="M8.076,14.382 L8.61,14.382 C9.288,14.382 9.87,14.022 9.87,13.134 C9.87,12.534 9.6,12.21 8.922,12.21 L8.64,12.21 L8.64,14.382 L8.076,14.382 Z M17.118,12.21 L15.66,12.21 L15.66,14.382 L17.118,14.382 C17.79,14.382 18.39,14.016 18.39,13.296 C18.39,12.576 17.79,12.21 17.118,12.21 Z M12.522,8.4 L12.888,8.4 C13.782,8.4 14.25,8.85 14.25,9.69 C14.25,10.53 13.782,10.98 12.888,10.98 L12.522,10.98 L12.522,8.4 Z M12.522,11.64 L13.104,11.64 C14.208,11.64 14.868,11.04 14.868,10.044 C14.868,9.048 14.202,8.736 13.104,8.736 L12.06,8.736 L12.06,14.382 L12.522,14.382 L12.522,11.64 Z M20.4,8.4 L19.8,8.4 L17.4,14.382 L17.97,14.382 L18.21,13.704 L20.7,13.704 L20.94,14.382 L21.6,14.382 L19.2,8.4 L20.4,8.4 Z M18.45,13.26 L19.14,11.25 L19.83,13.26 L18.45,13.26 Z M12.06,8.4 L10.5,8.4 L10.5,14.382 L12.06,14.382 L12.06,8.4 Z M8.64,11.7 L8.922,11.7 C9.6,11.7 9.87,11.376 9.87,10.77 C9.87,10.164 9.6,9.84 8.922,9.84 L8.64,9.84 L8.64,11.7 Z M8.64,9.24 L8.922,9.24 C9.6,9.24 9.87,8.916 9.87,8.31 C9.87,7.704 9.6,7.38 8.922,7.38 L8.64,7.38 L8.64,9.24 Z M8.076,6 L7.5,6 L7.5,14.382 L8.64,14.382 L8.64,12.24 L8.7,12.24 C9.12,12.75 9.81,13.032 10.5,13.032 C12.09,13.032 13.2,11.85 13.2,10.2 C13.2,8.55 12.09,7.368 10.5,7.368 C9.81,7.368 9.12,7.65 8.7,8.16 L8.64,8.16 L8.64,6 L8.076,6 Z M2.4,8.4 L3,8.4 L5.4,14.382 L4.83,14.382 L4.59,13.704 L2.1,13.704 L1.86,14.382 L1.2,14.382 L3.6,8.4 L2.4,8.4 Z M4.35,13.26 L3.66,11.25 L2.97,13.26 L4.35,13.26 Z" id="Shape" fill="#FFFFFF"></path>
        </g>
    </g>
</svg>
